<svg xmlns="http://www.w3.org/2000/svg" viewBox="0 0 264.06 130"><defs><style>.cls-1{fill:#b5dad1;}.cls-2{stroke:#000;stroke-miterlimit:10;}</style></defs><title>confused-rect</title><g id="Layer_1" data-name="Layer 1"><circle class="cls-1" cx="132.03" cy="65" r="63"/></g><g id="Layer_3" data-name="Layer 3"><rect class="cls-1" width="264.06" height="130"/></g><g id="Layer_2" data-name="Layer 2"><circle class="cls-2" cx="113.38" cy="42.56" r="3.25"/><circle class="cls-2" cx="147.78" cy="42.56" r="3.25"/><path d="M268.42,215.36a62,62,0,0,0-11.15,2.56c-1.83.6-1,3.5.8,2.89a62,62,0,0,1,11.15-2.56c1.9-.26,1.09-3.15-.8-2.89Z" transform="translate(-117.97 -185)"/><path d="M227.76,216.93a5.86,5.86,0,0,1,4.93-.12c1.79.71,2.57-2.19.8-2.89a8.77,8.77,0,0,0-7.24.42c-1.73.87-.21,3.46,1.51,2.59Z" transform="translate(-117.97 -185)"/><path d="M253.31,244.43c-1.25-1.7,4.48-3.48,5.58-1.4.9,1.71,3.49.19,2.59-1.51-2.81-5.33-14.66-.89-10.76,4.43,1.13,1.54,3.73,0,2.59-1.51Z" transform="translate(-117.97 -185)"/></g></svg>