<svg xmlns="http://www.w3.org/2000/svg" viewBox="0 0 264.06 130"><defs><style>.cls-1{fill:#e7ebbc;}.cls-2{stroke:#000;stroke-miterlimit:10;}</style></defs><title>scared-rect</title><g id="Layer_3" data-name="Layer 3"><rect class="cls-1" width="264.06" height="130"/></g><g id="Layer_1" data-name="Layer 1"><circle class="cls-2" cx="115.74" cy="35.65" r="3.14"/><circle class="cls-2" cx="146.89" cy="35.65" r="3.14"/><path d="M230.21,217.23c1.74,1.62-3.47,4.53-5.06,2.54-.6-.75-1.66.31-1.06,1.06,2.68,3.35,10.71-1.38,7.18-4.66-.71-.66-1.77.4-1.06,1.06Z" transform="translate(-113.97 -188)"/><path d="M259.87,216.17c-3.53,3.28,4.5,8,7.18,4.66.6-.75-.46-1.81-1.06-1.06-1.59,2-6.8-.92-5.06-2.54.71-.66-.35-1.72-1.06-1.06Z" transform="translate(-113.97 -188)"/><path d="M240.86,240c-.74-2.5,2-4.15,4-5,2.48-1.13,6.57.52,5.77,3.9l1-1c-1.93.53-4.37-.06-6.4.23a26.28,26.28,0,0,0-5.87,1.77c-1.78.7-1,3.6.8,2.89A22.06,22.06,0,0,1,247,240.9c1.77-.1,3.68.31,5.4-.16a1.5,1.5,0,0,0,1-1c1-4.24-3.15-8.72-7.41-8.2s-9.51,4.62-8.12,9.34c.55,1.85,3.44,1.06,2.89-.8Z" transform="translate(-113.97 -188)"/></g></svg>