<svg xmlns="http://www.w3.org/2000/svg" viewBox="0 0 264.06 130"><defs><style>.cls-1{fill:#dea6a6;}.cls-2{stroke:#000;stroke-miterlimit:10;}</style></defs><title>angry-rect</title><g id="Layer_2" data-name="Layer 2"><circle class="cls-1" cx="130.97" cy="65" r="63"/></g><g id="Layer_3" data-name="Layer 3"><rect class="cls-1" width="264.06" height="130"/></g><g id="Layer_1" data-name="Layer 1"><path d="M226.53,169.93a70.69,70.69,0,0,1,12.72,2.92c1.84.6,2.63-2.29.8-2.89A70.69,70.69,0,0,0,227.32,167c-1.89-.25-2.7,2.64-.8,2.89Z" transform="translate(-117.03 -137)"/><circle class="cls-2" cx="117.07" cy="40.16" r="2.73"/><circle class="cls-2" cx="145.96" cy="40.16" r="2.73"/><path d="M268.53,166.26a70.69,70.69,0,0,0-12.72,2.92c-1.83.6-1,3.5.8,2.89a70.69,70.69,0,0,1,12.72-2.92c1.9-.26,1.09-3.15-.8-2.89Z" transform="translate(-117.03 -137)"/><path d="M243.8,193c.79-2.08,1.6-3.41,4-3.66s5.35.29,6.14,3.06a1.5,1.5,0,0,0,2.89-.8c-1.12-3.93-4.93-5.59-8.8-5.3s-5.75,2.29-7.12,5.9c-.68,1.81,2.22,2.59,2.89.8Z" transform="translate(-117.03 -137)"/></g></svg>