<svg xmlns="http://www.w3.org/2000/svg" viewBox="0 0 264.06 130"><defs><style>.cls-1{fill:#e1bddb;}.cls-2{fill:#f27272;}.cls-3{stroke:#000;stroke-miterlimit:10;}</style></defs><title>love-rect</title><g id="Layer_2" data-name="Layer 2"><circle class="cls-1" cx="131.98" cy="64" r="63"/></g><g id="Layer_3" data-name="Layer 3"><rect class="cls-1" width="264.06" height="130"/></g><g id="Layer_1" data-name="Layer 1"><path d="M252.33,224.56c-1,2.67-2,4.43-5.06,4.81-3.24.4-6.88-.29-8-3.83-.56-1.84-3.45-1.06-2.89.8,1.41,4.65,5.93,6.5,10.51,6.09s6.74-2.78,8.29-7.07c.66-1.82-2.24-2.6-2.89-.8Z" transform="translate(-114.02 -171)"/><path class="cls-2" d="M217.68,222.53a6.64,6.64,0,0,1-2.15-5.24,2.18,2.18,0,0,1,.4-1.28,1,1,0,0,1,1.21-.26,1.45,1.45,0,0,1,.47.94l.64,2.9a15.13,15.13,0,0,1,1.06-2.94,2,2,0,0,1,.7-.91.75.75,0,0,1,1,.19,1.11,1.11,0,0,1,.07.63c-.23,2.47-.62,5.25-2.61,6.73" transform="translate(-114.02 -171)"/><circle class="cls-3" cx="113.32" cy="37.34" r="3.34"/><circle class="cls-3" cx="148.64" cy="37.34" r="3.34"/><path class="cls-2" d="M270.66,222.53a6.64,6.64,0,0,1-2.15-5.24,2.18,2.18,0,0,1,.4-1.28,1,1,0,0,1,1.21-.26,1.45,1.45,0,0,1,.47.94l.64,2.9a15.13,15.13,0,0,1,1.06-2.94,2,2,0,0,1,.7-.91.75.75,0,0,1,1,.19,1.11,1.11,0,0,1,.07.63c-.23,2.47-.62,5.25-2.61,6.73" transform="translate(-114.02 -171)"/></g></svg>